<?xml version="1.0" encoding="UTF-8"?>
<svg id="Layer_2" data-name="Layer 2" xmlns="http://www.w3.org/2000/svg" width="77.33124" height="69.92225" xmlns:xlink="http://www.w3.org/1999/xlink" viewBox="0 0 77.33124 69.92225">
  <defs>
    <style>
      .cls-1 {
        fill: url(#linear-gradient);
      }

      .cls-1, .cls-2, .cls-3, .cls-4, .cls-5 {
        stroke-width: 0px;
      }

      .cls-2 {
        fill: #f0554b;
        opacity: .77;
      }

      .cls-3 {
        fill: #f386a0;
        opacity: .44;
      }

      .cls-4 {
        fill: #582c17;
      }

      .cls-5 {
        fill: #f2cfaf;
      }
    </style>
    <linearGradient id="linear-gradient" x1="31.68639" y1="58.16675" x2="31.68639" y2="1.6409" gradientUnits="userSpaceOnUse">
      <stop offset=".03476" stop-color="#9b583b"/>
      <stop offset=".4106" stop-color="#87492a"/>
      <stop offset=".95196" stop-color="#703816"/>
    </linearGradient>
  </defs>
  <g id="addYourDesign">
    <g id="boxDesignFront">
      <g>
        <path class="cls-1" d="M19.07519,3.14894c-1.37972.45453-4.34903,1.5407-7.6399,3.74414-2.07327,1.38819-4.11689,2.78432-5.94213,5.36896-.79911,1.13158-2.14361,3.07942-2.68811,6.00476-.18777,1.00876-.70367,3.98537.56592,7.20572,1.09611,2.7803,2.37921,2.84081,3.25403,5.29832.80686,2.2666.23329,3.67009-.14148,7.06442-.44757,4.05359-1.00276,9.08192.91962,12.9279,1.73687,3.47486,5.0344,5.0606,7.14472,6.0754,4.55267,2.18931,6.40232,1.06213,20.86822.84773,6.44192-.09548,12.52689.03243,17.75567-3.03771,1.15508-.67823,2.13991-1.43708,2.97107-2.54319,1.41429-1.88214,1.85518-4.06637,1.69775-10.45535-.2145-8.70477-1.13759-8.89714-.21222-11.65628.86001-2.56427,2.02133-3.48347,2.75885-7.06443.31392-1.52417.65235-3.24591.28296-5.29832-.1226-.68119-.64567-3.19055-3.81995-6.64055-1.15878-1.25943-4.58012-4.71931-10.6817-7.06442-4.84066-1.86047-8.75305-2.01418-13.22833-2.18998-4.39059-.17248-8.662-.30113-13.86499,1.41289Z"/>
        <path class="cls-5" d="M13.7439,37.09546c.11153-.72628.66599-4.41535.58436-7.10337-.02229-.73392-.10025-1.39235-.34164-2.13639-.24193-.74573-.6116-1.44936-1.10701-2.10713-.29474-.39133-.59681-.77738-.90326-1.15966-2.04122-2.54627-1.89285-5.7367.44346-8.03293,1.85019-1.81847,4.1645-2.93627,6.48397-4.00729,3.1372-1.44858,6.53076-1.87076,9.91001-2.3002,3.9158-.49762,7.77699.05862,11.6305.69359,3.04361.50152,6.01822,1.17424,8.67616,2.86772,2.30274,1.46718,4.0934,3.31951,4.75592,6.034.49494,2.02793.39116,4.04661-.92012,5.7628-1.34681,1.7627-1.59629,3.71686-1.49735,5.82998.18449,3.93966.31036,7.88223.43547,11.8244.02523.79531-.02748,1.59736-.10276,2.39077-.20291,2.13839-1.49153,3.31593-3.50142,3.7828-5.53843,1.28658-11.11589,2.20057-16.82726,2.40324-4.93671.17518-7.03414.01795-9.558-.49823-4.51935-.92429-6.03302-2.28505-6.8262-3.33242-.92253-1.21819-1.21594-2.46875-1.51374-3.73801-.66494-2.83408-.38861-5.2569-.09633-6.73392.09174-.14658.18349-.29318.27523-.43977ZM24.91862,34.2015c-.01054-1.38227-1.16053-2.53073-2.5104-2.50707-1.29402.0227-2.37167,1.10317-2.36432,2.37047.00811,1.39717,1.13451,2.5607,2.46913,2.55049,1.33294-.01018,2.41563-1.09662,2.40559-2.41388ZM50.02286,33.74303c-.01229-1.25037-1.13658-2.34416-2.40908-2.34367-1.21003.00047-2.26898,1.12729-2.24567,2.38958.02338,1.26569,1.08144,2.33547,2.31293,2.33855,1.26994.00317,2.35442-1.10106,2.34182-2.38446Z"/>
        <path class="cls-4" d="M53.03775,6.39227c1.07567-.47796,2.87364,1.42573,4.46876,3.11466,1.40911,1.49199,2.85442,3.2396,4.12215,5.93518.50303,1.0696.81347,2.14059.95184,3.21192.3742,2.89731-.59655,5.2922-.91141,6.04857-.51146,1.22869-.81607,1.402-1.58905,3.2844,0,.00003-.49497,1.20539-.90107,2.85177-.09172.37185-.21342.90832-.24024,1.60876-.01935.50525-.03434.8968.08944,1.28824.23245.73508.83293,1.1582,1.57675,1.59093,1.05528.61394,2.08935,1.26421,3.24498,1.96671.27038-.35646.65757-.73018.8783-1.1845.57679-1.18709,1.0886-2.40613,1.60587-3.62112.0846-.19871.09045-.44157.08996-.66394-.00336-1.51338-.13566-3.04989.36354-4.5068.78483-2.2905,3.262-3.82218,5.59178-2.53169,1.11721.61883,1.89162,2.33443,1.53411,3.72036-.38148,1.47891-1.30085,2.45992-2.55125,3.18346-1.05795.61218-1.77915,1.46344-2.32455,2.55315-1.00144,2.00092-2.116,3.9451-3.14106,5.93468-.54542,1.05863-.98604,2.17053-1.50371,3.24407-.46602.96641-1.28499,1.36538-2.02579,1.03549-.85168-.37929-1.15482-1.33413-.74428-2.33977.12278-.30075.18997-.63941.37208-.89784.51038-.72424.41362-1.22973-.37025-1.69927-.79993-.47914-1.53296-1.06949-2.29833-1.60682-.03304-.02319-.09663-.00296-.24075-.00296.08837,1.32126.13225,2.6413.273,3.95099.35099,3.26616.40653,6.51574-1.01488,9.56362-.86569,1.85628-2.23994,3.29918-4.264,4.00249-.31132.10814-.56543.38044-.846.57682-.94223.31861-1.88448.63719-2.82672.95579-1.20344.3681-2.40169.75467-3.6131,1.09451-.21205.05949-.35055.14201-.43334.26018-.1328.18958-.10654.41867-.09669.51098.04703.44075.0842,1.26382.12877,2.37152.00343,1.01806.04206,1.88394.08479,2.55736.06336.99849.11793,1.29314.36569,1.52712.22183.20948.65917.40335,1.57668.6448.14858.0391.29737.08405.43828.14438.55527.23775,1.08855.93096.96556,1.60081-.07322.39876-.35638.64914-.42914.71173-.51454.44254-1.21279.36085-2.15941.2501-.67674-.07916-1.16584-.1364-1.72683-.47091-.63855-.38077-.96685-.88026-1.04117-.99753-.17121-.27018-.26055-.50984-.34448-.76825-.1619-.49851-.37511-1.28679-.50424-2.3701-.03722-1.77746-.07445-3.55494-.11167-5.33241-2.41416.38373-4.95485.72562-7.61422,1.00644-2.80263.29594-5.49129.49807-8.05236.62642.03929.32112.08805.82261.09247,1.43839.00825,1.14935-.14547,1.65508-.10073,2.8714.04644,1.26217.24324,1.5679.45364,1.73847.17143.139.43864.20545.97304.33834.51803.12883.67261.10709,1.28296.25376.46062.11069.69451.1685.86984.28953.06889.04755.60752.43202.63998,1.07415.03364.66557-.50113,1.12056-.63581,1.22661-.65105.51269-1.4905.38265-2.52211.22284-1.13075-.17518-1.79806-.27856-2.44875-.8145-.96861-.79781-1.18645-1.96609-1.31496-2.65523-.11467-.61498-.06493-1.37704.03457-2.90117.11842-1.81394.28574-2.81397-.27837-3.21516-.17353-.12341-.36555-.1541-.49721-.16134-.30865-.03123-.6173-.06248-.92595-.09371-.29675-.03634-.71783-.09018-1.22134-.16235-2.85078-.40859-4.96143-.94046-5.36953-1.01952-2.1762-.42161-4.3682-.87882-6.24379-2.09907-1.23163-.80125-2.27823-1.88608-3.40769-2.84391-.41593-.81776-.83185-1.63551-1.24777-2.45327-.01385-.12704-.00271-.26318-.04524-.37981-.86826-2.38074-1.10415-4.84791-1.00715-7.35869.02797-.72377.09562-1.44601.14508-2.16897-.32224.18424-.48385.40483-.63917.62974-.58458.84648-1.14445,1.71114-1.7574,2.53654-.51199.68938-1.4311.83732-2.0484.39229-.675-.48657-.81558-1.27366-.34039-2.04075.20257-.32701.44642-.62905.67838-.9373,1.24842-1.65905,2.28889-3.48914,3.99775-4.77114.17659-.1325.24854-.49361.2525-.75045.01699-1.10625.02338-2.21468-.02842-3.31946-.06575-1.40245-.39688-2.71844-1.22427-3.9108-1.19072-1.71595-2.21151-3.52894-2.627-5.6148-.14186-.97351-.28372-1.947-.42558-2.92051.15377-1.10201.27544-2.20976.47201-3.3041.03519-.1959.12328-.54266.41574-.82162.45248-.43157,1.06808-.36971,1.09534-.36654.49906.05815.87934.3888,1.0595.73492.1179.22651.24149.47195.05588,1.38864-.09141.45146-.17017.91394-.17729,1.37257-.04331,2.79298.72535,5.32892,2.45627,7.55033,1.36803,1.75567,1.96559,3.80037,1.98656,5.97176.03033,3.14012-.11644,6.28152-.12835,9.4226-.00678,1.78936-.03514,3.59707.19238,5.3649.43045,3.34463,2.23602,5.72111,5.52908,6.74184,1.61372.5002,3.28875.81182,4.946,1.16173,3.57876.75569,7.16653,1.37236,10.8592.99423,3.5274-.36119,7.06614-.61043,10.59594-.95002,4.27413-.4112,8.43613-1.34083,12.41874-2.95834,1.33372-.54167,2.4495-1.42039,2.98544-2.85205.83022-2.21777.9445-4.52099.79043-6.84738-.16793-2.53539-.42215-5.06574-.55271-7.60271-.06185-1.20166.09127-2.41327.1212-3.62099.05724-2.30918.68592-4.41301,1.87054-6.42719,2.09619-3.56407,2.33768-7.1798.10848-10.8783-1.30082-2.15825-3.02922-3.89329-4.7794-5.63761-.22458-.22382-.90195-.68431-.9434-1.39514-.03159-.5415.29227-1.18969.75692-1.39616Z"/>
        <path class="cls-4" d="M51.77152,5.51259c.02905.61225-.42084,1.17268-.90821,1.3989-.62157.28851-1.30028.04258-1.66019-.11812-1.49691-.66837-2.98093-1.37801-4.51755-1.94215-2.09917-.77068-4.26112-1.33614-6.51462-1.45767-1.71834-.09266-3.43522-.22938-5.15471-.28043-4.51867-.13416-8.88324.79048-13.2099,1.97018-3.05028.83167-5.94548,1.98958-8.56652,3.7933-.34731.239-.87521.36535-1.29448.31892-.15287-.01692-.41807-.05328-.64849-.24821-.53308-.45099-.34876-1.30901-.33726-1.35902.12228-.53173.49633-.86325.66363-1.00597,1.8466-1.57514,4.5703-2.64764,4.57034-2.64766,1.14402-.53464,2.32524-.99814,3.54561-1.38991,1.58431-.50861,5.61694-1.78715,11.01571-2.31242C31.55282-.0399,33.59948-.00661,34.33261.01224c1.41543.03638,2.61996.13924,3.4626.22852.55247.05853,1.584.16969,2.83605.39461.00003,0,3.67881.66084,8.60757,2.75085.28659.12153.52452.24395,1.00039.48879.7839.40332.97093.54859,1.13315.74542.12599.15287.3786.45939.39914.89216Z"/>
        <path class="cls-4" d="M4.36826,12.79828c.4771.27758.72091.42118.97836.65701.38226.35016,1.0203.92814.91084,1.62101-.0465.29433-.20068.57682-.46873.8157-.17727.15796-.35598.25175-.53627.29746-.12393.03142-.37681.07359-1.18756-.21158-.38734-.13624-.67076-.26583-.74694-.30089-.6789-.31253-1.21668-.56011-1.7888-1.03835-.40476-.33834-.6223-.52524-.74408-.87432-.02818-.08077-.22753-.68124.09173-1.18761.41292-.65491,1.35935-.62271,1.54685-.61634.53572.01822,1.00534.29145,1.94459.83791Z"/>
        <path class="cls-4" d="M7.93866,9.18911c.98967,1.23023.97163,1.17097,1.05802,1.33056.25126.46424.53294.96869.3469,1.50754-.08762.25377-.25826.48139-.50968.66274-.64824.46759-1.4992.26682-2.08518-.48235-.32642-.41732-.66605-.82434-.99972-1.23591-.22297-.24421-.46429-.47441-.66529-.73557-.49129-.63828-.46737-1.32872.04063-1.8432.42507-.4305,1.35386-.49555,1.89373-.10766.04322.03106.08995.06745.18132.14324.38418.31866.62139.61407.73928.7606Z"/>
        <path class="cls-4" d="M11.20739,29.40956c-.14949-1.26466-.98213-2.18709-1.75873-3.11433-2.57368-3.07294-2.53797-7.88318-.00795-10.99346,1.38785-1.70616,3.1964-2.80008,5.02265-3.91374,3.86135-2.35465,8.11106-3.47571,12.55619-3.96876,1.70955-.18961,3.43549-.48009,5.1403-.40694,2.664.11429,5.3361.3777,7.96781.80496,2.37555.3857,4.77855.86374,7.03213,1.6793,3.81772,1.38159,7.08224,3.60691,8.89172,7.43888,1.54414,3.27007,1.61355,6.63402-.41417,9.63925-1.22751,1.81926-1.42384,3.61658-1.30218,5.61182.08278,1.3577.2112,2.713.2747,4.07143.12969,2.77384.26977,5.54838.31838,8.32414.01592.90971-.1668,1.84114-.38123,2.73327-.71002,2.95416-2.85241,4.4497-5.61949,5.09777-2.99969.70253-6.03277,1.27665-9.06927,1.80345-1.66665.28915-3.36767.40107-5.05807.52806-1.92388.14456-3.85611.3358-5.77938.28885-2.15149-.05257-4.29398-.40138-6.44592-.52605-2.30719-.13368-4.36993-.9856-6.33721-2.06488-2.94756-1.61704-4.92858-3.96407-4.9901-7.5019-.03022-1.73783.10958-3.47796.13304-5.21758.02566-1.90257.00737-8.78587-.17323-10.31355ZM14.2929,35.81026c-.02029.94908-.02975,1.12489-.05798,2.22451-.1263,4.92037-.04655,5.67591.04169,6.25383.21693,1.42072.2477,2.34342.87337,3.20903,1.62609,2.24966,4.07031,3.35776,6.75495,3.84194,3.15837.56958,6.33556.61259,9.558.49823,5.71137-.20267,11.28883-1.11666,16.82726-2.40324,2.00988-.46688,3.2985-1.64441,3.50142-3.7828.07528-.79341.12799-1.59546.10276-2.39077-.12511-3.94217-.25098-7.88474-.43547-11.8244-.09893-2.11312.15055-4.06727,1.49735-5.82998,1.31127-1.71619,1.41506-3.73487.92012-5.7628-.66252-2.71449-2.45317-4.56682-4.75592-6.034-2.65794-1.69348-5.63255-2.3662-8.67616-2.86772-3.85351-.63497-7.7147-1.19122-11.6305-.69359-3.37925.42944-6.77281.85163-9.91001,2.3002-2.31947,1.07102-4.63378,2.18882-6.48397,4.00729-2.33631,2.29624-2.48468,5.48666-.44346,8.03293.30645.38227.60852.76832.90326,1.15966.94602,1.25606,1.43354,2.67934,1.44865,4.24351.00568.58822.02958.90351.01121,1.96432-.03709,2.14132-.00232,1.78413-.04656,3.85386Z"/>
        <path class="cls-4" d="M24.91862,34.2015c.01004,1.31726-1.07265,2.40371-2.40559,2.41388-1.33462.01022-2.46102-1.15332-2.46913-2.55049-.00736-1.26729,1.0703-2.34777,2.36432-2.37047,1.34988-.02366,2.49987,1.1248,2.5104,2.50707Z"/>
        <path class="cls-4" d="M50.02286,33.74303c.01261,1.2834-1.07187,2.38763-2.34182,2.38446-1.2315-.00308-2.28955-1.07286-2.31293-2.33855-.0233-1.26229,1.03564-2.38911,2.24567-2.38958,1.27249-.00049,2.39679,1.0933,2.40908,2.34367Z"/>
        <path class="cls-4" d="M35.85097,39.09622c-1.56829-.05602-3.00063-.69649-3.94659-1.76914-1.1819-1.33986-1.29021-2.97931-1.24941-3.83738.03712-.78555.70781-1.38459,1.49143-1.35505.7866.03737,1.394.70403,1.35673,1.48957-.02029.42811.02315,1.23354.54098,1.82094.43542.49355,1.17208.78855,1.98102.80724.77546.01131,1.49446-.25549,1.92328-.71415.58879-.62887.59774-1.56167.5742-1.93322-.04959-.78493.54724-1.46144,1.33308-1.51097.7847-.04803,1.46327.54635,1.51271,1.33127.05808.91973-.0382,2.66998-1.33652,4.05728-.98332,1.05103-2.45893,1.64019-4.04868,1.6171-.04409-.00065-.08832-.00192-.13223-.00349Z"/>
        <ellipse class="cls-3" cx="19.27974" cy="38.11986" rx="2.44666" ry="1.96031"/>
        <ellipse class="cls-3" cx="50.56636" cy="37.70144" rx="1.88573" ry="1.64619"/>
        <path class="cls-2" d="M63.89712,28.28067c.24297-2.74356,1.05746-5.15205,3.35431-6.95556,1.64066-1.28825,2.46821-3.03977,1.9226-5.22391-.05381-.21537-.01923-.61209.10484-.67764.22075-.11661.58664-.141.81309-.03531,1.69699.79195,2.75855,3.07608,2.38533,4.93229-.10454.51998-.09103,1.07488-.05592,1.60877.03887.59117.76306,1.08074,1.32616.87305.72199-.2663,1.39166-.67822,2.11836-.92644.40966-.13994,1.0646-.27155,1.29691-.06162.38915.35166.00439.8814-.16035,1.34723-.23422.66226-.41683,1.36229-.48544,2.05956-.14832,1.50757-.11376,3.03883-.3486,4.52976-.11476.72858-.53565,1.50857-1.04335,2.05652-1.38024,1.48965-3.2178,2.21736-5.19576,2.38829-2.14889.18573-4.63918-1.59412-5.5942-3.7823-.15007-.34385-.29352-.69954-.36894-1.06442-.07154-.34607-.04977-.71141-.06903-1.06829Z"/>
      </g>
    </g>
  </g>
</svg>